<?xml version="1.0" encoding="UTF-8" standalone="no"?>
<!DOCTYPE svg PUBLIC "-//W3C//DTD SVG 1.1//EN" "http://www.w3.org/Graphics/SVG/1.1/DTD/svg11.dtd">
<svg xmlns:xlink="http://www.w3.org/1999/xlink" height="1297px" version="1.1" viewBox="0 0 2545 1297" width="2545px" x="0px" y="0px" xmlns="http://www.w3.org/2000/svg">
  <rect height="1297" style="fill:rgb(255,255,255);stroke:none;" width="2545" x="0" y="0"/>
  <line style="fill:none;stroke:rgb(0,0,0);stroke-miterlimit:10;stroke-linecap:square;" x1="711" x2="711" y1="766" y2="654"/>
  <line style="fill:none;stroke:rgb(0,0,0);stroke-miterlimit:10;stroke-linecap:square;" x1="711" x2="1253" y1="654" y2="654"/>
  <line style="fill:none;stroke:rgb(0,0,0);stroke-miterlimit:10;stroke-linecap:square;" x1="1253" x2="1253" y1="654" y2="568"/>
  <line style="fill:none;stroke:rgb(0,0,0);stroke-miterlimit:10;stroke-linecap:square;" x1="1253" x2="1652" y1="568" y2="568"/>
  <line style="fill:none;stroke:rgb(0,0,0);stroke-miterlimit:10;stroke-linecap:square;" x1="1652" x2="1652" y1="568" y2="568"/>
  <line style="fill:none;stroke:rgb(0,0,0);stroke-miterlimit:10;stroke-linecap:square;" x1="1652" x2="1677" y1="568" y2="568"/>
  <line style="fill:none;stroke:rgb(0,0,0);stroke-miterlimit:10;stroke-linecap:square;" x1="1677" x2="1677" y1="568" y2="488"/>
  <line style="fill:none;stroke:rgb(0,0,0);stroke-miterlimit:10;stroke-linecap:square;" x1="1677" x2="1693" y1="488" y2="488"/>
  <line style="fill:none;stroke:rgb(0,0,0);stroke-miterlimit:10;stroke-linecap:square;" x1="1693" x2="1693" y1="488" y2="420"/>
  <line style="fill:none;stroke:rgb(0,0,0);stroke-miterlimit:10;stroke-linecap:square;" x1="1693" x2="1707" y1="420" y2="420"/>
  <line style="fill:none;stroke:rgb(0,0,0);stroke-miterlimit:10;stroke-linecap:square;" x1="1707" x2="1707" y1="420" y2="374"/>
  <line style="fill:none;stroke:rgb(0,0,0);stroke-miterlimit:10;stroke-linecap:square;" x1="1707" x2="1798" y1="374" y2="374"/>
  <text style="fill:rgb(0,0,0);stroke:none;font-family:&quot;Helvetica&quot;;font-size:11px;" x="1802" y="379">maccormicki</text>
  <line style="fill:none;stroke:rgb(0,0,0);stroke-miterlimit:10;stroke-linecap:square;" x1="1707" x2="1707" y1="420" y2="466"/>
  <line style="fill:none;stroke:rgb(0,0,0);stroke-miterlimit:10;stroke-linecap:square;" x1="1707" x2="1720" y1="466" y2="466"/>
  <path d="M1720,466 Q1720,557 1742,557" style="fill:none;stroke:rgb(0,0,255);stroke-miterlimit:10;stroke-linecap:square;"/>
  <line style="fill:none;stroke:rgb(0,0,0);stroke-miterlimit:10;stroke-linecap:square;" x1="1742" x2="1742" y1="557" y2="557"/>
  <line style="fill:none;stroke:rgb(0,0,0);stroke-miterlimit:10;stroke-linecap:square;" x1="1742" x2="1834" y1="557" y2="557"/>
  <text style="fill:rgb(0,0,0);stroke:none;font-family:&quot;Helvetica&quot;;font-size:11px;" x="1838" y="562">chilensis</text>
  <line style="fill:none;stroke:rgb(0,0,0);stroke-miterlimit:10;stroke-linecap:square;" x1="1720" x2="1720" y1="466" y2="466"/>
  <line style="fill:none;stroke:rgb(0,0,0);stroke-miterlimit:10;stroke-linecap:square;" x1="1720" x2="1721" y1="466" y2="466"/>
  <path d="M1721,466 Q1721,649 1742,649" style="fill:none;stroke:rgb(0,0,255);stroke-miterlimit:10;stroke-linecap:square;"/>
  <line style="fill:none;stroke:rgb(0,0,0);stroke-miterlimit:10;stroke-linecap:square;" x1="1742" x2="1742" y1="649" y2="649"/>
  <line style="fill:none;stroke:rgb(0,0,0);stroke-miterlimit:10;stroke-linecap:square;" x1="1742" x2="1834" y1="649" y2="649"/>
  <text style="fill:rgb(0,0,0);stroke:none;font-family:&quot;Helvetica&quot;;font-size:11px;" x="1838" y="654">skua</text>
  <line style="fill:none;stroke:rgb(0,0,0);stroke-miterlimit:10;stroke-linecap:square;" x1="1721" x2="1721" y1="466" y2="466"/>
  <line style="fill:none;stroke:rgb(0,0,0);stroke-miterlimit:10;stroke-linecap:square;" x1="1721" x2="1812" y1="466" y2="466"/>
  <text style="fill:rgb(0,0,0);stroke:none;font-family:&quot;Helvetica&quot;;font-size:11px;" x="1816" y="471">antarcticus</text>
  <path d="M1693,488 Q1693,557 1742,557" style="fill:none;stroke:rgb(0,0,255);stroke-miterlimit:10;stroke-linecap:square;"/>
  <path d="M1677,568 Q1677,649 1742,649" style="fill:none;stroke:rgb(0,0,255);stroke-miterlimit:10;stroke-linecap:square;"/>
  <path d="M1652,568 Q1652,740 1674,740" style="fill:none;stroke:rgb(0,0,255);stroke-miterlimit:10;stroke-linecap:square;"/>
  <line style="fill:none;stroke:rgb(0,0,0);stroke-miterlimit:10;stroke-linecap:square;" x1="1674" x2="1674" y1="740" y2="740"/>
  <line style="fill:none;stroke:rgb(0,0,0);stroke-miterlimit:10;stroke-linecap:square;" x1="1674" x2="1766" y1="740" y2="740"/>
  <text style="fill:rgb(0,0,0);stroke:none;font-family:&quot;Helvetica&quot;;font-size:11px;" x="1770" y="745">pomarinus</text>
  <path d="M1253,654 Q1253,740 1674,740" style="fill:none;stroke:rgb(0,0,255);stroke-miterlimit:10;stroke-linecap:square;"/>
  <line style="fill:none;stroke:rgb(0,0,0);stroke-miterlimit:10;stroke-linecap:square;" x1="711" x2="711" y1="766" y2="877"/>
  <line style="fill:none;stroke:rgb(0,0,0);stroke-miterlimit:10;stroke-linecap:square;" x1="711" x2="919" y1="877" y2="877"/>
  <line style="fill:none;stroke:rgb(0,0,0);stroke-miterlimit:10;stroke-linecap:square;" x1="919" x2="919" y1="877" y2="832"/>
  <line style="fill:none;stroke:rgb(0,0,0);stroke-miterlimit:10;stroke-linecap:square;" x1="919" x2="1011" y1="832" y2="832"/>
  <text style="fill:rgb(0,0,0);stroke:none;font-family:&quot;Helvetica&quot;;font-size:11px;" x="1015" y="837">parasiticus</text>
  <line style="fill:none;stroke:rgb(0,0,0);stroke-miterlimit:10;stroke-linecap:square;" x1="919" x2="919" y1="877" y2="923"/>
  <line style="fill:none;stroke:rgb(0,0,0);stroke-miterlimit:10;stroke-linecap:square;" x1="919" x2="1011" y1="923" y2="923"/>
  <text style="fill:rgb(0,0,0);stroke:none;font-family:&quot;Helvetica&quot;;font-size:11px;" x="1015" y="928">longicaudus</text>
  <line style="fill:none;stroke:rgb(128,128,128);stroke-miterlimit:10;stroke-linecap:square;" x1="588" x2="680" y1="301" y2="301"/>
  <line style="fill:none;stroke:rgb(128,128,128);stroke-miterlimit:10;stroke-linecap:square;" x1="588" x2="588" y1="298" y2="304"/>
  <line style="fill:none;stroke:rgb(128,128,128);stroke-miterlimit:10;stroke-linecap:square;" x1="680" x2="680" y1="298" y2="304"/>
  <text style="fill:rgb(128,128,128);stroke:none;font-family:&quot;Helvetica&quot;;font-size:10px;font-style:italic;" x="682" y="307">1.0</text>
</svg>
